<svg fill="none" xmlns="http://www.w3.org/2000/svg" viewBox="0 0 27 28">
  <g clip-path="url(#JjMJ8jhdAtGEa)" fill="#657D84">
    <path d="M26.87 20.115c-2.247-2.03-2.19-5.06-2.558-7.869-.277-2.152-.416-4.41-1.135-6.464-.8-2.29-3.341-5.433-6.054-4.174C13.88-1.82 7.59.836 5.082 3.93 1.193 8.722 4.95 16.2.122 20.464c-.187.163-.146.447 0 .617.769.902 1.61 1.551 2.64 2.03-1.234 1.08-1.643 2.875-1.103 4.426.098.284.588.35.645 0 .286-1.648.05-2.98 1.74-4.003 1.144-.69 2.582-1.015 3.815-1.535a7.372 7.372 0 001.373-.731c.057.309.31.56.653.56s.678-.3.662-.657a.704.704 0 00-.474-.634c.4-.463.662-1.023.695-1.697a7.483 7.483 0 002.72.544 5.864 5.864 0 002.312-.447 3.89 3.89 0 00.858 1.779.597.597 0 00-.115.373c.017.366.294.674.678.674.156 0 .31-.065.433-.162.294.195.605.357.94.487 1.16.447 2.426.382 3.595.788 1.87.65 2.605 2.298 2.646 4.158.009.422.67.544.76.105.319-1.543-.27-3.134-1.421-4.166 1.094-.487 1.952-1.234 2.72-2.208.147-.187.196-.463 0-.642l-.024-.008zm-14.003-1.843c-4.125-.48-5.661-3.898-6.241-7.553v-.016c1.568-3.809 8.08-2.428 9.966-6.074.099 2.144 1.16 5.189 2.99 5.977-.44 3.751-2.14 8.193-6.723 7.657l.008.008zm10.498 4.133c-.98-.552-2.091-.625-3.186-.828-1.944-.358-2.966-1.26-3.807-2.924 2.663-1.47 4.166-4.913 3.905-7.982a.365.365 0 00.016-.512c-.825-.934-1.552-1.69-2.075-2.85-.539-1.218-.743-2.518-1.193-3.752 0-.024-.024-.04-.032-.057 0-.016.008-.032.008-.049.065-.308-.327-.47-.507-.21-1.92 2.72-4.59 3.02-7.45 4.19-1.47.6-2.957 1.47-3.006 3.207v.016c0 .008-.009.017-.009.033-.343 3.28 1.307 6.374 4.036 7.828-.703 2.656-4.199 2.842-6.43 4.012-1.037-.414-1.837-.942-2.589-1.722 3.047-2.745 2.688-6.927 3.023-10.72.286-3.199 1.315-5.684 4.166-7.421 2.851-1.738 5.62-2.022 8.61-.52.074.13.221.22.393.187 5.245-1.13 5.62 7.552 6.012 10.638.327 2.558.344 5.96 2.64 7.592-.687.845-1.537 1.39-2.525 1.844z"/>
    <path d="M18.724 24.126c-1.903-.024-3.807 1.316-4.991 2.786-.989-1.624-3.162-2.745-5.065-2.444-1.487.235-2.925 1.55-2.525 3.15.066.268.54.3.58 0 .27-1.737 1.585-2.493 3.285-2.111 1.34.3 2.23 1.177 3.153 2.111.065.065.13.09.204.106.106.138.327.203.482.057.972-.983 2.026-1.844 3.333-2.347.924-.358 2.23-.699 2.95.398.35.536.326 1.267.482 1.876.098.357.735.414.792 0 .245-1.803-.695-3.557-2.68-3.582zm-6.993-2.062a.611.611 0 00-.604-.601.612.612 0 00-.605.6c0 .326.278.602.605.602a.612.612 0 00.604-.601zm1.699.763c-.016-.382-.31-.698-.702-.698-.368 0-.719.325-.703.698.017.382.31.698.703.698.368 0 .719-.324.703-.698zm.328.098c-.009.34.236.576.53.69a.06.06 0 01.033.016c.213.081.474 0 .646-.13.196-.154.27-.34.294-.585v-.032c.024-.284-.205-.56-.45-.666-.294-.122-.555-.032-.792.146-.025.017-.041.04-.066.057l.066-.04a.655.655 0 00-.27.535l.008.009zm2.328-.065h.032c.393-.05.744-.293.744-.74v-.032c-.008-.625-.793-.966-1.242-.511a.216.216 0 01-.049.04c-.229.179-.253.56-.155.796.098.235.384.487.67.447zm-4.518-12.587c-.065-.309-.49-.325-.645-.082-.164.252-.23.618-.572.699-.294.073-.548-.17-.703-.39-.114-.162-.392-.162-.441.057-.163.674.547 1.161 1.152 1.129.67-.041 1.348-.715 1.209-1.405v-.008zm5.89-.155c-.073-.276-.465-.325-.613-.08-.147.243-.277.584-.62.576-.327-.008-.483-.341-.711-.512-.098-.081-.303-.024-.351.09-.295.657.498 1.25 1.102 1.266.678.017 1.39-.641 1.201-1.34h-.008zm-2.647 4.572c-.433.317-.751.715-1.323.772-.67.065-1.234-.333-1.863-.463-.13-.024-.302.09-.245.243.343.861 1.364 1.3 2.263 1.21.768-.08 1.732-.576 1.691-1.461-.008-.244-.302-.471-.531-.3h.008z"/>
  </g>
  <defs>
    <clipPath id="JjMJ8jhdAtGEa">
      <path fill="#fff" d="M0 0h27v28H0z"/>
    </clipPath>
  </defs>
</svg>
