<svg fill="none" xmlns="http://www.w3.org/2000/svg" viewBox="0 0 25 26">
  <g clip-path="url(#ctgvhbFL_oXxa)">
    <path d="M23.209 1.531C21.565.053 18.995-.566 17.022.633c-1.872 1.138-2.818 3.695-2.26 5.785-1.84 1.265-3.41 2.963-4.926 4.581-1.523 1.631-3.187 3.35-4.287 5.307-.027.046-.034.1-.027.146a.21.21 0 00.007.233c.08.12.174.227.261.333-.261.247-.583.613-.597.932-.013.347.282.726.537 1.032-.765.413-1.422.992-1.798 1.798-.443.959-.483 1.977-1.08 2.89-.658 1.012-1.584 1.531-2.718 1.904-.235.08-.167.38.054.406 1.516.2 2.818-.812 3.55-2.064.469-.799.576-1.631.872-2.483.301-.866.892-1.399 1.536-1.938.228.28.517.586.825.626.37.047.832-.293 1.087-.593.074.08.148.153.222.227.047.046.1.066.154.08a.223.223 0 00.248.013c2.027-1.112 3.697-2.863 5.341-4.441 1.584-1.525 3.71-3.036 4.959-4.834 1.831.24 4.3-1.292 5.246-2.683 1.396-2.057.738-4.754-1.033-6.352l.014-.007zm-9.501 13.137c-1.604 1.605-3.348 3.03-5.019 4.554-.342-.546-.792-1.032-1.228-1.498-.43-.453-.879-.919-1.416-1.252 1.537-1.545 2.825-3.349 4.301-4.953 1.1-1.192 2.302-2.297 3.436-3.456.858 1.192 1.71 2.63 2.905 3.522-1.074.972-2.053 2.157-2.98 3.09v-.007zm3.704-3.682l-.034-.033c-.416-.413-.866-.786-1.262-1.219-.637-.699-1.133-1.551-1.878-2.137.241-.26.483-.52.718-.786.51.7 1.114 1.325 1.697 1.958.463.5.966 1.305 1.597 1.651a7.34 7.34 0 00-.838.56v.006zm1.335-1.125c-.289-.646-1.04-1.239-1.49-1.698-.597-.613-1.221-1.199-1.946-1.671.047-1.225.181-2.504.759-3.556.838 1.059 1.845 1.978 2.81 2.917.96.938 1.9 2.064 3.007 2.856-.953.58-2.094.959-3.134 1.152h-.006zm4.381-2.17c-.637-1.213-1.946-2.191-2.892-3.143-.993-1-1.98-1.998-3.086-2.863.047-.04.1-.074.147-.107 1.684-1.145 3.986-.486 5.341.859 1.423 1.418 1.819 3.695.49 5.26V7.69z" fill="#657D84"/>
  </g>
  <defs>
    <clipPath id="ctgvhbFL_oXxa">
      <path fill="#fff" d="M0 0h25v26H0z"/>
    </clipPath>
  </defs>
</svg>
