<svg fill="none" xmlns="http://www.w3.org/2000/svg" viewBox="0 0 25 30">
  <g clip-path="url(#yU5lyWFyWrJea)" fill="#D8DBDD">
    <path d="M16.02 10.794c-.04-.435-.386-.752-.83-.644-3.877 1.003-7.747 2.022-11.633 3-.328.083-.558.476-.452.81.814 2.573 1.208 5.221 1.29 7.92.025.869.041 1.754 0 2.631-1.536-.56-3.606.385-4.206 1.93-.682 1.771.51 3.701 2.415 3.55 2.843-.225 3.147-3.633 3.188-5.856.033-2.013-.074-4.026-.37-5.998 3.295-.418 6.704-1.412 9.875-2.34.28 1.513.608 3.025.88 4.537.139.794.353 1.746.476 2.707-1.791.526-4.84 1.637-4.502 4.052.27 1.913 2.694 2.214 4.091 1.42 2.26-1.287 1.914-4.328 1.619-6.508-.51-3.768-1.496-7.418-1.849-11.211h.008zM5.29 17.368a27.227 27.227 0 00-.739-3.116c3.393-.894 6.803-1.754 10.204-2.623.058.986.18 1.955.337 2.924-3.229.752-6.704 1.554-9.801 2.807v.008zM20.317.501c-1.002-1.286-2.136.167-2.728 1.395-.18-.434-.46-.81-.879-1.019-.616-.317-1.454-.184-1.832.443-.419.702-.131 1.68.181 2.364.6 1.32 1.57 2.523 2.366 3.726.23.36.88.468 1.085 0 .566-1.311 1.207-2.606 1.684-3.951.27-.777.706-2.206.123-2.95V.502zm4.239 8.981c-1.092-.819-1.89.267-2.3 1.42-.567-.835-1.668-1.303-2.325-.242-.386.627-.066 1.236.378 1.713.788.843 1.52 1.687 2.136 2.673.263.418 1.01.41 1.117-.15.238-1.229.78-2.248 1.216-3.4.247-.644.403-1.546-.23-2.014h.008z"/>
  </g>
  <defs>
    <clipPath id="yU5lyWFyWrJea">
      <path fill="#fff" d="M0 0h25v30H0z"/>
    </clipPath>
  </defs>
</svg>
