<svg fill="none" xmlns="http://www.w3.org/2000/svg" viewBox="0 0 27 25">
  <g clip-path="url(#WVNjHBiIYA99a)">
    <path d="M26.698 2.576c-2.54-.412-5.253-1.128-7.843-1.243-.163-.123-.319-.247-.49-.362V.444a.447.447 0 00-.662-.386c-.972.56-2.214 1.078-3.071 1.835-.31-.65-1.659-.527-2.165-.181a1.564 1.564 0 00-.384.386c-.8-.806-1.953-1.407-2.86-2.032-.31-.214-.629.082-.67.387a7.23 7.23 0 00-.049.839C5.792 1.638 2.73 1.868.18 2.864a.194.194 0 00-.098.28.262.262 0 00-.09.213c.212 3.4 1.135 6.814 1.773 10.147.694 3.604 1.34 7.233 2.124 10.821.008.058.032.09.057.132-.008.206.122.42.392.436 3.153.148 6.331.058 9.485.058 2.9 0 5.89.197 8.766-.223.049 0 .09-.033.122-.065a.466.466 0 00.262-.28c1.16-3.432 1.715-6.97 2.197-10.55.49-3.588 1.144-7.11 1.797-10.665v-.074c.05-.222-.032-.477-.286-.518h.017zm-8.962 3.316c.286.115.572-.173.572-.444.024-1.202.032-2.395.049-3.596.972 1.02 2.067 1.942 3.129 2.863-.924.971-1.724 2.033-2.361 3.226a.391.391 0 00.049.47c.13.427.49.822.76 1.168.18.23.359.551.588.781-2.165 2.65-4.208 5.555-6.07 8.476.474-1.991.743-4.073 1.143-6.04.482-2.345 1.283-4.806 1.414-7.208.245.098.49.197.727.296v.008zm-1.307-4.09c.351-.197.702-.395 1.062-.592l-.074 3.546c-.751-.345-1.487-.724-2.255-1.028a2.33 2.33 0 00.033-.634c-.016-.19-.033-.436-.114-.65.376-.263.98-.444 1.34-.65l.008.008zm-3.554.765c.18-.189.433-.32.694-.337.32-.016.507.173.768.296h.009c.065.436.163.906-.131 1.284-.286.37-.89.428-1.25.14a.96.96 0 01-.09-1.374v-.009zm-.71 1.893c.653.749 1.895.774 2.59.074.007-.008.024-.024.032-.04.53.345 1.11.625 1.707.88-.972 2.345-1.266 5.118-1.756 7.595-.384 1.95-.899 3.967-1.144 5.974-.457-1.958-1.037-3.892-1.56-5.834-.646-2.411-1.136-4.954-2.075-7.266.645-.585 1.372-1.087 2.091-1.572.04.058.073.123.122.18l-.008.01zm-.393-1.662a2.01 2.01 0 00-.016.765c-.703.445-1.348.955-2.018 1.44-.147-1.226-.36-2.485-.343-3.711.752.56 1.536 1.16 2.369 1.506h.008zm-3.21-.107c.098 1.086.286 2.18.424 3.21.033.23.262.328.474.296.352 2.279 1.095 4.517 1.691 6.74.49 1.818.932 3.67 1.454 5.48-1.96-2.93-4.231-6-6.772-8.238.31-.263.613-.543.907-.823.302-.288.637-.584.833-.962.139-.107.204-.28.082-.478-.433-.7-.915-1.374-1.405-2.024-.327-.428-.646-.897-1.046-1.275.588-.206 1.152-.65 1.675-.955.555-.321 1.135-.634 1.674-.98l.009.009zM4.738 24.054c-.588-3.481-1.307-6.938-1.985-10.394C2.091 10.23 1.658 6.6.563 3.283c0-.024-.024-.04-.032-.057 2.345.016 4.82-.51 7.165-.938-.417.214-.817.444-1.218.674-.67.387-1.495.716-1.96 1.342-.09.123-.05.247.04.329.246.65.728 1.201 1.112 1.761.416.609.833 1.226 1.258 1.835-.245.148-.466.337-.686.519-.376.304-.752.608-1.095.946-.245.239-.115.535.122.65 1.054 1.753 2.46 3.308 3.71 4.921 1.42 1.827 2.76 3.72 4.198 5.538-.081.576-.032 1.185 0 1.753.025.477.008.98.123 1.448-2.851-.008-5.71-.066-8.554.05h-.008zm17.36.082v.025c-2.614-.321-5.31-.173-7.94-.165.032-.527-.09-1.078-.123-1.596-.033-.535-.033-1.095-.122-1.63.016-.04.024-.082.04-.123 2.672-3.07 5.253-6.51 7.271-10.031.115-.058.204-.165.196-.305-.016-.485-.49-.864-.784-1.218-.212-.263-.45-.592-.727-.84a17.045 17.045 0 012.516-3.258c.155-.156.18-.469 0-.625-.792-.7-1.576-1.416-2.385-2.099 2.018.593 4.248.856 6.266 1.111-2.59 6.542-2.05 14.039-4.208 20.754z" fill="#657D84"/>
  </g>
  <defs>
    <clipPath id="WVNjHBiIYA99a">
      <path fill="#fff" d="M0 0h27v25H0z"/>
    </clipPath>
  </defs>
</svg>
