<svg fill="none" xmlns="http://www.w3.org/2000/svg" viewBox="0 0 43 12">
  <g clip-path="url(#8q0b4LNShGB9a)" fill="#566167">
    <path d="M43 12H30.027V.007H43V12zm-2.621-8.143c0-.49.003-.987-.006-1.484 0-.046-.072-.113-.126-.134-.28-.108-.562-.212-.847-.305-1.4-.45-2.813-.544-4.23-.09-2.17.697-3.424 2.534-3.156 4.701.2 1.61 1.092 2.803 2.61 3.432 1.916.794 3.831.613 5.694-.251.111-.051.142-.121.14-.235-.006-.365-.002-.73-.002-1.096v-.402c-.355.182-.67.358-1 .51-1.123.517-2.287.714-3.511.4-1.728-.445-2.325-1.753-2.333-2.867-.011-1.41.815-2.474 2.183-2.911 1.016-.325 2.015-.215 3 .107.53.173 1.041.409 1.584.625zM15.02 0h12.972v11.993H15.019V0zm3.398 10.332c.06.005.097.01.135.01 1.148 0 2.295.013 3.442-.004a3.777 3.777 0 001.752-.442c.881-.473 1.328-1.367 1.153-2.33-.171-.942-.788-1.491-1.677-1.79-.05-.016-.098-.034-.158-.055.032-.026.045-.04.062-.049 1.439-.793 1.265-2.785-.026-3.537a3.485 3.485 0 00-1.72-.471c-.916-.017-1.833-.005-2.75-.004-.068 0-.137.006-.213.01v8.662zM0 11.998V.006h12.98v11.992H0zm8.054-6.283c.035-.024.055-.039.077-.051 1.34-.768 1.206-2.465.322-3.253-.586-.524-1.302-.723-2.066-.745-.935-.027-1.872-.007-2.808-.006-.055 0-.11.01-.169.015v8.656c.047.005.078.011.109.011 1.16 0 2.321.012 3.481-.004a3.751 3.751 0 001.665-.407c.85-.433 1.279-1.131 1.252-2.065-.026-.882-.482-1.519-1.28-1.915-.182-.09-.378-.154-.583-.236z"/>
    <path d="M20.008 8.968v-2.29c.017-.014.027-.028.037-.028.716.01 1.433.01 2.148.04.277.01.531.136.743.321.527.46.476 1.308-.13 1.671a1.894 1.894 0 01-.824.272c-.649.04-1.303.014-1.974.014zm.002-3.733V3.027c.583.024 1.161-.072 1.726.088.415.117.701.381.756.814.059.457-.109.84-.53 1.066a1.912 1.912 0 01-.703.23c-.406.037-.818.01-1.248.01zM5.007 6.62c.737.022 1.462.012 2.18.074.506.044.907.31 1.058.828.14.48-.081 1-.554 1.224a2.2 2.2 0 01-.804.22c-.619.033-1.24.01-1.88.01V6.622zM5 5.246V3.058c.018-.009.034-.025.05-.025.474.007.95-.014 1.42.03.791.076 1.209.725.944 1.412a.982.982 0 01-.591.586 2.988 2.988 0 01-.759.177c-.348.03-.7.008-1.063.008z"/>
  </g>
  <defs>
    <clipPath id="8q0b4LNShGB9a">
      <path fill="#fff" d="M0 0h43v12H0z"/>
    </clipPath>
  </defs>
</svg>
