<svg fill="none" xmlns="http://www.w3.org/2000/svg" viewBox="0 0 23 23">
  <mask id="9XaFmy8SXsFDa" fill="#fff">
    <path d="M13.285 0c1.04.002 1.589.006 2.133.02l.136.003.138.004.6.02c.91 0 1.868.193 2.779.528.766.288 1.437.767 2.012 1.342.575.575 1.007 1.293 1.342 2.06a7.75 7.75 0 01.527 2.78c.01.238.017.445.023.645l.003.133.004.133.003.134c.01.475.013 1.006.014 1.914v3.298a51.371 51.371 0 01-.035 2.336l-.007.136-.004.068-.008.138c-.011.186-.024.38-.04.6 0 .958-.193 1.868-.528 2.779a5.788 5.788 0 01-3.354 3.354 7.742 7.742 0 01-2.78.527c-.238.01-.445.017-.645.023l-.133.003-.067.002-.133.003c-.492.011-1.03.015-1.98.016H9.708a89.05 89.05 0 01-2.147-.019l-.203-.005a71.352 71.352 0 01-.65-.023c-.959 0-1.87-.192-2.78-.527-.766-.288-1.437-.767-2.012-1.342-.575-.575-1.007-1.293-1.342-2.06a7.742 7.742 0 01-.527-2.78c-.01-.238-.017-.445-.023-.645l-.003-.133-.002-.067-.003-.133A93.734 93.734 0 010 13.285v-3.3c.002-1.264.01-1.854.042-2.45l.008-.134c.012-.2.026-.407.045-.646 0-.958.191-1.869.527-2.779.287-.767.719-1.485 1.294-2.06C2.492 1.342 3.21.91 3.977.575a7.742 7.742 0 012.78-.527c.238-.01.445-.017.645-.023l.133-.003.133-.004.134-.003C8.277.005 8.808.002 9.716.001h3.569zm-.582 2.06H6.9c-.767 0-1.485.144-2.156.384a3.587 3.587 0 00-1.342.862 4.02 4.02 0 00-.862 1.342c-.24.719-.384 1.437-.384 2.156a53.94 53.94 0 00-.02.558l-.006.194-.002.065-.003.13a89.85 89.85 0 00-.016 1.944v3.514c.001.937.005 1.466.016 1.945l.003.13.002.064.006.194c.005.174.012.354.02.558 0 .767.144 1.485.384 2.156.191.527.479.959.862 1.342.383.383.863.67 1.342.862.719.24 1.437.384 2.156.384.204.008.384.015.558.02l.194.006.064.002.13.003a90.67 90.67 0 001.945.016h3.514a90.666 90.666 0 001.945-.016l.13-.003.064-.002.194-.006c.174-.005.354-.012.558-.02.766 0 1.485-.144 2.156-.384.958-.383 1.773-1.15 2.156-2.156.24-.719.384-1.437.384-2.156.008-.204.015-.384.02-.558l.006-.194.002-.065.003-.13c.011-.478.015-1.007.016-1.944V9.743a90.003 90.003 0 00-.016-1.945l-.003-.13-.002-.064-.006-.194a74.205 74.205 0 00-.02-.558c0-.767-.144-1.485-.384-2.156a3.592 3.592 0 00-.862-1.342 4.02 4.02 0 00-1.342-.862c-.719-.24-1.437-.384-2.156-.384a72.843 72.843 0 00-.558-.02l-.194-.006-.065-.002-.13-.003a89.912 89.912 0 00-1.944-.016h-.554zM11.5 5.607a5.89 5.89 0 015.894 5.894l-.002.146a5.89 5.89 0 01-5.892 5.748A5.89 5.89 0 015.606 11.5 5.89 5.89 0 0111.5 5.606zm0 2.06A3.845 3.845 0 007.667 11.5a3.845 3.845 0 003.833 3.833 3.845 3.845 0 003.833-3.833A3.845 3.845 0 0011.5 7.667zm6.133-3.689a1.39 1.39 0 110 2.78 1.39 1.39 0 010-2.78z"/>
  </mask>
  <path d="M13.285 0c1.04.002 1.589.006 2.133.02l.136.003.138.004.6.02c.91 0 1.868.193 2.779.528.766.288 1.437.767 2.012 1.342.575.575 1.007 1.293 1.342 2.06a7.75 7.75 0 01.527 2.78c.01.238.017.445.023.645l.003.133.004.133.003.134c.01.475.013 1.006.014 1.914v3.298a51.371 51.371 0 01-.035 2.336l-.007.136-.004.068-.008.138c-.011.186-.024.38-.04.6 0 .958-.193 1.868-.528 2.779a5.788 5.788 0 01-3.354 3.354 7.742 7.742 0 01-2.78.527c-.238.01-.445.017-.645.023l-.133.003-.067.002-.133.003c-.492.011-1.03.015-1.98.016H9.708a89.05 89.05 0 01-2.147-.019l-.203-.005a71.352 71.352 0 01-.65-.023c-.959 0-1.87-.192-2.78-.527-.766-.288-1.437-.767-2.012-1.342-.575-.575-1.007-1.293-1.342-2.06a7.742 7.742 0 01-.527-2.78c-.01-.238-.017-.445-.023-.645l-.003-.133-.002-.067-.003-.133A93.734 93.734 0 010 13.285v-3.3c.002-1.264.01-1.854.042-2.45l.008-.134c.012-.2.026-.407.045-.646 0-.958.191-1.869.527-2.779.287-.767.719-1.485 1.294-2.06C2.492 1.342 3.21.91 3.977.575a7.742 7.742 0 012.78-.527c.238-.01.445-.017.645-.023l.133-.003.133-.004.134-.003C8.277.005 8.808.002 9.716.001h3.569zm-.582 2.06H6.9c-.767 0-1.485.144-2.156.384a3.587 3.587 0 00-1.342.862 4.02 4.02 0 00-.862 1.342c-.24.719-.384 1.437-.384 2.156a53.94 53.94 0 00-.02.558l-.006.194-.002.065-.003.13a89.85 89.85 0 00-.016 1.944v3.514c.001.937.005 1.466.016 1.945l.003.13.002.064.006.194c.005.174.012.354.02.558 0 .767.144 1.485.384 2.156.191.527.479.959.862 1.342.383.383.863.67 1.342.862.719.24 1.437.384 2.156.384.204.008.384.015.558.02l.194.006.064.002.13.003a90.67 90.67 0 001.945.016h3.514a90.666 90.666 0 001.945-.016l.13-.003.064-.002.194-.006c.174-.005.354-.012.558-.02.766 0 1.485-.144 2.156-.384.958-.383 1.773-1.15 2.156-2.156.24-.719.384-1.437.384-2.156.008-.204.015-.384.02-.558l.006-.194.002-.065.003-.13c.011-.478.015-1.007.016-1.944V9.743a90.003 90.003 0 00-.016-1.945l-.003-.13-.002-.064-.006-.194a74.205 74.205 0 00-.02-.558c0-.767-.144-1.485-.384-2.156a3.592 3.592 0 00-.862-1.342 4.02 4.02 0 00-1.342-.862c-.719-.24-1.437-.384-2.156-.384a72.843 72.843 0 00-.558-.02l-.194-.006-.065-.002-.13-.003a89.912 89.912 0 00-1.944-.016h-.554zM11.5 5.607a5.89 5.89 0 015.894 5.894l-.002.146a5.89 5.89 0 01-5.892 5.748A5.89 5.89 0 015.606 11.5 5.89 5.89 0 0111.5 5.606zm0 2.06A3.845 3.845 0 007.667 11.5a3.845 3.845 0 003.833 3.833 3.845 3.845 0 003.833-3.833A3.845 3.845 0 0011.5 7.667zm6.133-3.689a1.39 1.39 0 110 2.78 1.39 1.39 0 010-2.78z" stroke="#657D84" stroke-width="4" mask="url(#9XaFmy8SXsFDa)"/>
</svg>
