<svg fill="none" xmlns="http://www.w3.org/2000/svg" viewBox="0 0 100 100">
  <path fill="#B9EDEB" fill-opacity=".9" d="M0 0h100v100H0z"/>
  <path d="M69.486 46.884c0-.574-.687-.992-1.18-.681-2.614 1.66-5.408 3.274-7.83 5.234a137.417 137.417 0 01-.023-5.461.733.733 0 00-.06-.3c1.77-1.732 2.517-5.15 2.65-7.408.312-5.306-3.301-9.273-8.757-8.724-2.843.287-5.782 2.307-7.107 4.948-.806-2.593-2.77-4.625-6.227-4.888-4.793-.358-9.876 3.537-10.406 8.341-.373 3.43 1.674 6.31 4.517 7.732l-.265.036c-.109.024-.18.071-.217.155-.217.024-.446.18-.458.43-.229 4.935-.036 9.895-.216 14.83-.013.442.36.717.758.753 3.505.37 7.07.502 10.648.526-2.072 2.079-3.927 4.338-5.794 6.596-.313.37.18.884.542.538 2.048-1.9 4.095-3.8 5.974-5.856.036.849.133 1.697.157 2.534.036 1.362-.205 2.784.41 4.027.192.382.734.31.939 0 .795-1.231.59-2.928.506-4.338-.048-.717-.085-1.482-.205-2.223.819 1.028 1.819 1.936 2.758 2.82 1.24 1.172 2.553 2.737 4.095 3.49.602.287 1.41-.335.988-.98-.964-1.446-2.59-2.533-3.878-3.704-1.084-.98-2.18-2.08-3.409-2.904 4.023-.048 8.034-.203 11.996-.359.398-.012.867-.358.807-.8a84.818 84.818 0 01-.506-5.187c2.458 1.386 5.01 2.581 7.384 4.123.493.323 1.349-.096 1.264-.729-.518-4.182.085-8.365.157-12.56l-.012-.011zM49.54 45.82a150.94 150.94 0 01-3.288-.083 98.638 98.638 0 01-1.83-.096c1.071-.98 1.914-2.366 2.456-3.92.41 1.65 1.301 3.096 2.662 4.1zm-17.56-6.943c-.109-3.907 3.312-6.978 6.961-7.671 8.925-1.685 9.334 13.503 1.65 14.22-.397-.012-.783-.024-1.18-.024-3.541-.813-7.311-2.199-7.432-6.525zm3.468 21.546c.133-4.648.205-9.333-.41-13.946 3.578.945 7.553.813 11.226 1.004 4.216.215 8.431.347 12.635-.131-.133 4.361.132 8.735.602 13.073-7.997-.024-16.067.657-24.053 0zm18.645-14.734c-4.408-.203-5.89-3.131-6.384-6.752.518-3.943 2-7.42 6.673-7.839 4.83-.43 7.347 3.155 6.914 7.576-.422 4.326-2.59 7.218-7.215 7.003l.012.012zm13.418 12.26c-2.18-1.218-4.348-2.497-6.649-3.465a.771.771 0 00-.277-.06c-.036-.633-.06-1.279-.084-1.912 2.565-1.1 4.986-2.64 7.347-4.146-.169 3.202-.542 6.393-.35 9.595l.013-.012z" fill="#46555E"/>
</svg>
