<svg fill="none" xmlns="http://www.w3.org/2000/svg" viewBox="0 0 100 100">
  <path fill="#B9EDEB" fill-opacity=".9" d="M0 0h100v100H0z"/>
  <path d="M66.82 31.856c-2.58-2.34-6.62-3.32-9.71-1.42-2.94 1.8-4.43 5.85-3.55 9.16-2.88 2-5.35 4.68-7.72 7.25-2.39 2.58-5 5.3-6.72 8.39a.39.39 0 00-.04.23c-.07.11-.08.24.01.37.13.18.27.36.41.53-.42.39-.92.97-.94 1.47-.02.54.44 1.15.85 1.63-1.2.65-2.23 1.57-2.82 2.84-.7 1.51-.76 3.12-1.7 4.57-1.04 1.6-2.49 2.42-4.27 3.01-.37.12-.27.6.09.64 2.38.32 4.42-1.29 5.57-3.26.73-1.26.9-2.58 1.37-3.93.47-1.37 1.4-2.21 2.41-3.06.36.44.81.93 1.29.99.58.08 1.31-.47 1.7-.94.11.12.23.25.35.36.07.07.16.11.24.12.11.08.25.1.39.03 3.18-1.76 5.8-4.52 8.39-7.03 2.49-2.41 5.82-4.8 7.78-7.65 2.87.38 6.75-2.04 8.23-4.24 2.19-3.26 1.16-7.52-1.63-10.05l.02-.01zm-14.91 20.78c-2.52 2.54-5.25 4.79-7.87 7.2-.53-.86-1.24-1.64-1.93-2.37-.68-.71-1.38-1.45-2.22-1.98 2.41-2.44 4.43-5.3 6.75-7.83 1.72-1.88 3.61-3.63 5.39-5.47 1.35 1.88 2.68 4.16 4.56 5.57-1.69 1.53-3.22 3.41-4.68 4.88zm5.81-5.83s-.03-.04-.05-.05c-.65-.65-1.36-1.24-1.98-1.93-1-1.1-1.78-2.46-2.95-3.38.38-.41.76-.82 1.12-1.24.8 1.11 1.75 2.1 2.67 3.1.73.79 1.51 2.06 2.51 2.62-.45.26-.89.56-1.32.89v-.01zm2.09-1.77c-.46-1.02-1.63-1.95-2.34-2.68-.94-.96-1.92-1.9-3.05-2.64.08-1.94.28-3.96 1.19-5.63 1.31 1.67 2.9 3.12 4.41 4.61 1.51 1.49 2.98 3.27 4.72 4.51-1.5.91-3.29 1.52-4.92 1.82l-.01.01zm6.88-3.43c-1-1.92-3.06-3.46-4.54-4.97-1.55-1.58-3.1-3.16-4.84-4.53.08-.06.15-.12.24-.17 2.64-1.81 6.26-.77 8.38 1.35 2.23 2.24 2.86 5.84.77 8.32h-.01z" fill="#46555E"/>
</svg>
