<svg fill="none" xmlns="http://www.w3.org/2000/svg" viewBox="0 0 100 100">
  <path fill="#B9EDEB" fill-opacity=".9" d="M0 0h100v100H0z"/>
  <path d="M68.81 58.523c-3.155-2.825-3.09-7.047-3.591-10.956-.393-2.997-.579-6.144-1.594-9.012-1.125-3.179-4.705-7.572-8.526-5.81-4.563-4.78-13.416-1.075-16.942 3.233-5.48 6.68-.186 17.088-6.976 23.028-.262.225-.207.623 0 .86 1.081 1.256 2.27 2.169 3.712 2.824-1.736 1.504-2.315 4.006-1.561 6.165.142.387.83.494.906 0 .393-2.288.076-4.146 2.445-5.585 1.605-.967 3.635-1.407 5.371-2.138a10.86 10.86 0 001.932-1.01c.088.43.437.785.917.785.48 0 .96-.419.939-.924a.966.966 0 00-.666-.88c.568-.645.939-1.429.972-2.374a10.43 10.43 0 003.831.752 8.504 8.504 0 003.253-.613c.175.935.612 1.762 1.212 2.481a.819.819 0 00-.164.527c.022.505.415.934.95.934a.943.943 0 00.6-.225 6.63 6.63 0 001.321.676c1.627.623 3.417.537 5.055 1.096 2.641.913 3.668 3.2 3.722 5.79.011.58.939.751 1.07.139.447-2.148-.382-4.36-2.009-5.81 1.54-.678 2.751-1.72 3.821-3.084.207-.257.284-.644 0-.891v.022zm-19.704-2.568c-5.808-.666-7.958-5.424-8.788-10.515 0 0 0-.01.011-.021 2.216-5.306 11.364-3.384 14.028-8.453.142 2.986 1.637 7.228 4.214 8.324-.623 5.22-3.002 11.417-9.465 10.665zm14.77 5.747c-1.386-.763-2.948-.87-4.476-1.15-2.729-.504-4.17-1.75-5.36-4.081 3.745-2.051 5.862-6.853 5.502-11.117a.498.498 0 00.022-.709c-1.157-1.3-2.183-2.352-2.915-3.974-.764-1.686-1.048-3.501-1.68-5.23-.012-.033-.034-.054-.056-.087 0-.021.011-.042.011-.064.088-.43-.458-.655-.71-.3-2.695 3.79-6.462 4.21-10.49 5.842-2.074.838-4.159 2.052-4.235 4.468v.022c0 .01-.011.032-.011.043-.48 4.565 1.845 8.883 5.676 10.902-.982 3.705-5.906 3.963-9.05 5.596-1.462-.58-2.587-1.31-3.646-2.395 4.29-3.824 3.778-9.656 4.247-14.93.393-4.457 1.856-7.916 5.862-10.343 4.017-2.428 7.904-2.815 12.117-.73.11.182.306.31.557.257 7.38-1.568 7.904 10.526 8.46 14.822.459 3.566.491 8.303 3.712 10.57-.96 1.18-2.162 1.933-3.559 2.566l.022.022z" fill="#46555E"/>
  <path d="M57.348 64.108c-2.686-.032-5.36 1.836-7.03 3.877-1.398-2.266-4.454-3.824-7.129-3.405-2.096.333-4.115 2.16-3.559 4.383.099.376.754.419.82 0 .37-2.428 2.226-3.47 4.617-2.943 1.877.419 3.133 1.643 4.443 2.943a.565.565 0 00.284.15c.153.193.47.29.677.075 1.375-1.364 2.849-2.578 4.683-3.265 1.299-.494 3.144-.967 4.148.558.491.752.458 1.762.677 2.61.13.505 1.026.58 1.113 0 .339-2.513-.971-4.951-3.766-4.994l.022.01zm-9.847-2.878a.86.86 0 00-.851-.839.86.86 0 00-.852.838.86.86 0 00.852.838.86.86 0 00.851-.838zm2.391 1.062c-.022-.526-.437-.977-.993-.977-.514 0-1.016.451-.994.977.022.527.437.978.994.978.513 0 1.015-.451.993-.978zm.469.14c-.01.473.328.806.743.967.01 0 .032.01.043.021.306.118.666 0 .917-.182.273-.204.382-.473.415-.806v-.043c.033-.397-.284-.784-.633-.924-.415-.171-.786-.053-1.124.205-.033.021-.055.053-.088.085.033-.021.066-.032.099-.053-.23.172-.36.408-.372.752v-.022zm3.264-.086h.044c.557-.075 1.048-.408 1.048-1.03v-.044c-.01-.87-1.114-1.343-1.747-.709a.262.262 0 01-.065.054c-.317.247-.36.773-.218 1.106.142.333.545.677.938.623zm-6.353-17.54c-.087-.43-.688-.45-.906-.118-.23.355-.317.86-.808.967-.415.097-.764-.236-.982-.537-.164-.226-.546-.226-.623.075-.229.935.765 1.622 1.627 1.568.939-.053 1.9-.999 1.692-1.965v.01zm8.286-.214c-.11-.387-.655-.451-.863-.108-.207.344-.393.816-.873.795-.459-.01-.677-.473-1.005-.709-.141-.107-.425-.032-.49.129-.416.924.709 1.74 1.55 1.762.95.021 1.953-.892 1.68-1.859v-.01zm-3.723 6.368c-.611.441-1.059 1-1.856 1.075-.938.086-1.735-.462-2.62-.644-.185-.033-.425.129-.338.343.491 1.203 1.921 1.816 3.188 1.687 1.08-.108 2.434-.806 2.38-2.03-.012-.333-.426-.656-.743-.42l-.01-.01z" fill="#46555E"/>
</svg>
