<svg fill="none" xmlns="http://www.w3.org/2000/svg" viewBox="0 0 100 100">
  <path fill="#B7F5F3" fill-opacity=".9" d="M0 0h100v100H0z"/>
  <path d="M74.923 39.24c.03-.324-.09-.677-.417-.868-4.05-2.296-8.576-3.989-12.91-5.68-4.08-1.575-8.71-3.856-13.147-4.048-.313-.22-.76-.235-.953.206-.923 2.016-1.831 4.062-2.546 6.166h-4.125c-4.809-.073-9.827-.441-14.607.148-.327.044-.565.367-.595.662-.015.044-.03.073-.045.117-.834 5.24-.536 10.728-.491 16.04.044 5.755-.03 11.612.566 17.35.06.648.744.854 1.161.604 4.214.633 8.68.147 12.94.133 4.868-.015 9.856.382 14.71 0 .477-.03.73-.353.745-.692a.913.913 0 00.149-.427v-.132c.938.574 1.98 1 2.948 1.457 1.117.515 2.278 1.162 3.529 1.089.417.235.968.206 1.191-.31 2.144-4.959 3.96-10.065 5.926-15.098 2.085-5.357 4.646-10.713 6.03-16.29.045-.148 0-.295-.044-.413l-.015-.014zM39.74 68.29c-4.11.073-8.547-.133-12.597.764.149-5.445-.164-10.919-.224-16.35-.06-5.385.328-10.933-.327-16.29 4.214.5 8.532.324 12.76.398 4.69.088 9.604.588 14.28.103-.626 5.194-.209 10.566-.164 15.775.044 5.254.06 10.507.223 15.746-4.586-.485-9.365-.235-13.966-.147h.015zm15.113-32.008a.484.484 0 00-.239-.368c-.06-.177-.193-.324-.461-.368-1.727-.28-3.484-.412-5.256-.47.163-.354.327-.722.506-1.046.12-.22.283-.47.387-.706 3.365 1.398 6.909 2.34 10.274 3.797 3.26 1.412 6.477 2.943 9.693 4.444-2.055 3.296-3.365 7.181-4.883 10.728a438.915 438.915 0 00-3.932 9.477c-.938-.574-2.099-.927-3.067-1.398-.744-.353-1.519-1.016-2.323-1.104.015-2.443 0-4.886 0-7.314-.03-5.18.194-10.551-.684-15.672h-.015zm12.581 17.762c-2.025 5.15-4.124 10.33-5.821 15.599-.983-.456-2.13-.75-3.112-1.163-.998-.412-2.025-.868-3.097-1.103.074-2.016.104-4.032.133-6.049.522.31 1.132.515 1.623.751 1.087.5 2.398 1.192 3.648 1.236.358.353 1.058.442 1.31-.103 1.535-3.385 2.979-6.799 4.423-10.213 1.563-3.694 3.529-7.46 4.422-11.375.343-.31.432-.883-.104-1.119-6.417-2.972-13.847-7.549-21.054-8.02a.304.304 0 00-.238-.132c-.655.059-.894.736-1.147 1.265-.223.456-.491.957-.655 1.457-.506 0-1.027-.015-1.534-.015.834-1.736 1.594-3.517 2.398-5.253 3.514 2.148 7.98 3.15 11.778 4.65 4.392 1.722 8.65 3.826 13.073 5.504-2.502 4.444-4.184 9.403-6.046 14.127v-.044z" fill="#46555E"/>
  <path d="M51.01 39.43a.644.644 0 00-.58-.456c-6.567-.514-14.176-1.015-20.742-.147-.209-.176-.626-.103-.67.192-1.31 7.225-.64 15.275-.343 22.589.015.485.387.72.745.735a.795.795 0 00.283.089c3.469.426 7.013.265 10.497.265s7.043.206 10.512-.221c.492-.059.73-.412.73-.765a.768.768 0 00.074-.383c-.03-7.137.462-14.554-.402-21.647a.42.42 0 00-.104-.265v.015zm-1.266 21.457c-3.156-.265-6.387-.074-9.544-.074-3.306 0-6.67-.103-9.961.265.283-6.96.834-14.525-.328-21.412 6.328 1.045 13.669.854 20.087.589-.73 6.77-.268 13.818-.239 20.632h-.015z" fill="#46555E"/>
</svg>
