<svg fill="none" xmlns="http://www.w3.org/2000/svg" viewBox="0 0 27 23">
  <g clip-path="url(#9pgRoOyn7h-Da)" fill="#657D84">
    <path d="M26.96 5.746a.472.472 0 00-.225-.464c-2.187-1.228-4.632-2.133-6.971-3.038C17.56 1.4 15.06.18 12.664.079c-.17-.118-.41-.126-.515.11-.498 1.079-.989 2.173-1.375 3.298H8.547c-2.597-.04-5.307-.236-7.888.079-.177.024-.305.197-.321.354-.008.024-.016.04-.024.063-.45 2.802-.29 5.738-.266 8.58.024 3.077-.016 6.21.306 9.28.032.346.402.457.627.323 2.275.338 4.687.079 6.987.07 2.63-.007 5.323.205 7.944 0 .257-.015.394-.188.402-.37a.484.484 0 00.08-.227v-.071c.507.307 1.07.535 1.593.779.603.275 1.23.622 1.905.582.225.126.523.11.643-.165 1.158-2.653 2.14-5.384 3.2-8.076 1.126-2.865 2.51-5.73 3.257-8.713a.337.337 0 00-.024-.22l-.008-.009zm-19 15.538c-2.22.04-4.615-.07-6.802.41.08-2.913-.089-5.84-.12-8.745-.033-2.881.176-5.849-.178-8.714 2.276.268 4.607.173 6.891.213 2.533.047 5.186.314 7.71.055-.337 2.778-.112 5.651-.088 8.438.025 2.81.033 5.62.121 8.422-2.476-.26-5.057-.126-7.542-.079h.008zm8.161-17.12a.259.259 0 00-.128-.197c-.033-.094-.105-.173-.25-.196-.933-.15-1.881-.22-2.838-.252.088-.19.177-.386.273-.56.065-.117.153-.251.21-.377 1.816.748 3.73 1.252 5.547 2.03 1.761.756 3.498 1.575 5.235 2.378-1.11 1.763-1.818 3.841-2.638 5.738a232.856 232.856 0 00-2.122 5.07c-.507-.308-1.134-.497-1.657-.748-.402-.19-.82-.544-1.254-.59.008-1.308 0-2.614 0-3.913-.016-2.77.105-5.644-.37-8.383h-.008zm6.794 9.5c-1.093 2.756-2.227 5.527-3.143 8.344-.531-.244-1.15-.401-1.68-.621-.54-.22-1.095-.465-1.673-.59.04-1.08.056-2.157.072-3.236.281.165.611.276.876.402.587.267 1.295.637 1.97.66.193.19.571.237.708-.054.828-1.81 1.608-3.637 2.388-5.463.844-1.976 1.905-3.99 2.388-6.085.185-.165.233-.472-.056-.598-3.466-1.59-7.478-4.038-11.37-4.29a.165.165 0 00-.128-.07c-.354.031-.483.393-.62.676-.12.244-.265.512-.353.78-.274 0-.555-.008-.828-.008.45-.929.86-1.881 1.294-2.81 1.898 1.149 4.31 1.684 6.36 2.487 2.372.921 4.672 2.047 7.06 2.944-1.351 2.377-2.26 5.03-3.265 7.556v-.023z"/>
    <path d="M14.047 5.848a.347.347 0 00-.314-.244c-3.546-.275-7.654-.543-11.2-.078-.113-.095-.338-.055-.362.102-.708 3.865-.346 8.17-.185 12.082.008.26.209.386.402.394.04.024.096.04.153.047 1.873.229 3.787.142 5.668.142 1.882 0 3.803.11 5.677-.118.265-.032.394-.22.394-.41a.406.406 0 00.04-.204c-.016-3.818.25-7.785-.217-11.579a.224.224 0 00-.056-.141v.007zm-.684 11.477c-1.704-.142-3.45-.04-5.154-.04-1.785 0-3.602-.055-5.379.142.153-3.723.45-7.769-.177-11.453 3.417.56 7.381.457 10.847.315-.394 3.621-.145 7.391-.129 11.036h-.008z"/>
  </g>
  <defs>
    <clipPath id="9pgRoOyn7h-Da">
      <path fill="#fff" d="M0 0h27v23H0z"/>
    </clipPath>
  </defs>
</svg>
