<svg fill="none" xmlns="http://www.w3.org/2000/svg" viewBox="0 0 21 25">
  <g clip-path="url(#1RvpT5nG-5oMa)">
    <path d="M20.221 16.395c-.744-2.311-1.454-4.718-2.502-6.911.014-.02.035-.042.049-.07a61.562 61.562 0 002.24-4.904c.516-1.266 1.254-2.78.82-4.157-.09-.284-.42-.443-.69-.284-2.336 1.418-4.362 3.563-5.7 5.963a.73.73 0 00-.13-.028c-3.095-.124-6.21-.27-9.311-.214C3.584 5.81.93 5.582.152 7.104c-.145-.007-.207.187-.083.27 2.646 1.785 5.961 2.891 9 3.908-1.047 1.605-2.26 3.328-2.818 5.14-1.826.166-3.66.72-5.43 1.155-.345.083-.352.526-.09.713 1.399.99 3.039 1.48 4.48 2.393 1.722 1.093 3.052 2.629 4.348 4.178.241.291.758.056.745-.31-.07-1.958-.124-3.881-.448-5.818v-.007c.696-.657 1.281-1.46 1.874-2.207.53-.671 1.179-1.356 1.6-2.11.84 1.238 1.915 2.331 2.887 3.466 1.185 1.383 2.288 2.864 3.556 4.178a.364.364 0 00.352.097c.144.048.31.02.406-.145.986-1.674.255-3.888-.296-5.597l-.014-.014zm-.117 4.773c-.882-1.342-1.971-2.574-3.026-3.77-1.102-1.253-2.246-2.595-3.632-3.55-.09-.158-.303-.234-.482-.075-.724.622-1.261 1.529-1.833 2.29-.6.788-1.269 1.57-1.744 2.441-.138.042-.255.152-.234.325.151 1.502.296 3.017.303 4.531-.986-1.155-2.082-2.213-3.343-3.071-1.316-.885-2.846-1.342-4.197-2.144 1.585-.325 3.219-.644 4.7-1.245a.272.272 0 00.131-.118h.007c1.365-1.605 2.288-3.715 3.405-5.507.158-.255 0-.574-.269-.664-3.15-1.016-6.217-2.49-9.387-3.41 1.592-1.197 5.162-.664 6.947-.595 2.288.083 4.577.173 6.865.263a.375.375 0 00.365-.2s.007 0 .007-.008c1.799-1.881 3.205-3.901 5.341-5.388 0 1.39-.972 3.161-1.454 4.24-.53 1.19-1.082 2.366-1.558 3.577-.069.18.007.338.145.435v.028c.345 1.902 1 3.756 1.578 5.596.476 1.515 1.903 4.296 1.379 6.019h-.014z" fill="#657D84"/>
  </g>
  <defs>
    <clipPath id="1RvpT5nG-5oMa">
      <path fill="#fff" d="M0 0h21v25H0z"/>
    </clipPath>
  </defs>
</svg>
