<svg fill="none" xmlns="http://www.w3.org/2000/svg" viewBox="0 0 26 18">
  <g clip-path="url(#JZcmT8FlUbA8a)" fill="#D8DBDD">
    <path d="M25.635 3.736c0-.219-.182-.4-.402-.4-1.892-.015-3.813-.068-5.727-.053-.205-.588-.722-1.019-1.087-1.517-.326-.445-.6-.966-1.025-1.32a.333.333 0 00-.266-.25c-2.521-.347-5.72-.234-8.226.31a.213.213 0 00-.167-.008c-.547.212-.684.898-.942 1.381-.235.438-.524.86-.737 1.321-.174 0-.349.008-.524.015.046-.453-.167-.95-.653-1.019-1.048-.158-2.248-.022-3.312-.015-.22 0-.44.197-.425.423.015.234.015.46.03.687-.501 0-1.01-.015-1.511-.03-.236-.008-.426.203-.426.422C.175 8.173.053 12.657 0 17.14c0 .219.197.43.418.415 3.311-.151 6.623.136 9.927.023a8.121 8.121 0 003.342.377 9.55 9.55 0 002.69-.664c1.602.128 3.25-.015 4.853-.06 1.504-.038 3.023.007 4.504-.257a.204.204 0 00.16-.151.323.323 0 00.068-.196c.152-4.287-.19-8.612-.327-12.898v.007zM8.454 2.4c.19-.324.524-.754.63-1.177 1.383.098 2.788-.045 4.17-.09 1.231-.038 2.462.014 3.684-.129.122.513.456 1.011.737 1.411.213.302.44.627.714.883a43.611 43.611 0 00-3.152.174c-.95-.355-1.99-.506-2.91-.242-1.45-.09-2.9-.083-4.367-.06.175-.249.334-.52.494-.785V2.4zM.844 16.725c.09-4.197.128-8.393.227-12.589 2.605.136 5.378.287 8.051.098-2.468 1.344-4.086 4.287-3.828 7.14.213 2.34 1.512 4.241 3.32 5.396-2.575-.174-5.204-.068-7.77-.045zm12.243.279c-3.57.15-6.843-2.543-6.874-6.219-.038-3.947 2.864-5.94 6.335-6.649 1.58.083 2.955.211 4.307 1.359 1.284 1.086 2.218 2.701 2.567 4.347.881 4.234-2.324 6.988-6.327 7.162h-.008zm4.808-.543c1.892-1.344 2.97-3.517 2.537-6.287-.341-2.196-1.595-4.362-3.38-5.713a6.842 6.842 0 00-.516-.355c2.757.113 5.552.007 8.31.023.098 4.105.045 8.249.417 12.332-2.27-.317-4.952-.295-7.36 0h-.008z"/>
    <path d="M18.435 9.615c-.372-2.558-3.365-5.275-6.008-4.31-2.894.053-5.12 2.642-4.755 5.563.402 3.223 2.947 5.124 6.152 4.649 2.871-.423 5.036-2.966 4.61-5.902zm-5.218 4.83c-2.553.174-4.398-1.653-4.512-4.188-.107-2.408 1.64-3.487 3.577-4.129.957.06 1.9-.007 2.796.446 1.29.649 2.08 1.871 2.233 3.268.258 2.445-1.687 4.437-4.094 4.603z"/>
    <path d="M12.806 7.592a2.83 2.83 0 00-.66.272 2.76 2.76 0 00-1.056.747c-1.254 1.434-.79 3.895 1.094 4.529 1.815.618 3.942-.823 4.056-2.725.114-1.811-1.664-3.298-3.434-2.83v.007z"/>
  </g>
  <defs>
    <clipPath id="JZcmT8FlUbA8a">
      <path fill="#fff" d="M0 0h26v18H0z"/>
    </clipPath>
  </defs>
</svg>
