<svg fill="none" xmlns="http://www.w3.org/2000/svg" viewBox="0 0 23 33">
  <g clip-path="url(#yj0HDcKSoCYfa)" fill="#657D84">
    <path d="M22.99 31.309c-.602-3.883-.793-7.784-.927-11.705-.115-3.354.048-6.948-.9-10.205a.567.567 0 00-.592-.567c-1.473 0-2.946.028-4.418.057.19-4.017-.335-8.639-4.677-8.889C6.8-.26 6.474 4.71 6.742 8.755c-1.53-.058-3.05-.058-4.504.201-.182-.038-.364.03-.411.27C1.129 12.78 1.08 16.51.803 20.113.507 24.025.077 27.936 0 31.847c0 .48.545.711.909.567 3.337.922 7.411.49 10.825.48 3.434-.01 7.211.26 10.577-.442.326-.067.498-.307.536-.586a.668.668 0 00.143-.547v-.01zM10.703 1.413c3.232-.692 4.102 3.44 4.217 5.66.029.615.029 1.23.02 1.845-1.33.029-2.65.048-3.98.038-1.051-.01-2.132-.076-3.222-.134-.115-3.162-.144-6.737 2.964-7.4v-.01zm.545 29.857c-3.185.03-6.752-.47-9.937.049.45-3.393.631-6.843.851-10.254.24-3.758.689-7.65.44-11.407 1.349.365 2.793.49 4.256.538.067.711.134 1.355.182 1.903a.734.734 0 00-.335.48c0 .02 0 .03-.01.048-.095.433.096.865.507 1.038a.864.864 0 001.09-.365c0-.01.02-.029.03-.038.277-.462.057-1.057-.422-1.26-.047-.018-.095-.028-.143-.047.048-.52.048-1.105.038-1.75 1.08.01 2.152 0 3.175.01 1.31.02 2.63.039 3.95.039-.02.634-.038 1.268-.048 1.902a.883.883 0 00-.316.308c-.057.096-.085.202-.114.308a.874.874 0 00.392.97s.01 0 .019.01c.469.278 1.167.038 1.291-.529v-.048a.883.883 0 00-.268-.894c.067-.615.134-1.297.192-2.027a71.793 71.793 0 004.322-.164c-.22 3.585.182 7.314.316 10.888.124 3.335.354 6.67.908 9.966-3.452.144-6.895.298-10.357.336l-.01-.01z"/>
    <path d="M12.605 18.335c-.278.327-.469.712-.632 1.106-.095.23-.181.47-.267.701-.192-.615-.44-1.21-.842-1.682-.45-.528-1.31-1.085-1.922-.442-.545.567-.163 1.672.095 2.268.593 1.374 1.464 2.672 2.19 3.97.23.403.87.422 1.09 0a112.803 112.803 0 002.047-4.19c.297-.654.9-1.625.24-2.26-.632-.605-1.54-.018-2 .52v.01z"/>
  </g>
  <defs>
    <clipPath id="yj0HDcKSoCYfa">
      <path fill="#fff" d="M0 0h23v33H0z"/>
    </clipPath>
  </defs>
</svg>
