<svg fill="none" xmlns="http://www.w3.org/2000/svg" viewBox="0 0 25 32">
  <g clip-path="url(#ooZ7ZASUVfS2a)">
    <path d="M10.735 6.799a.388.388 0 00-.213-.314.38.38 0 00-.348-.357c-2.195-.33-4.56-.823-6.771-.628a.334.334 0 00-.281.196.307.307 0 00-.264.22C1.973 9.142-.587 18.453 4.423 19.794c-.331 1.324-.476 2.69-.638 4.049-.195 1.579-.502 3.225-.374 4.821-1.25-.144-2.637.416-3.25 1.545-.212.068-.195.382.018.475 1.71.688 3.853 1.12 5.682 1.316.34.034.46-.331.34-.586a.314.314 0 00.026-.263c-.392-1.103-1.064-1.96-2.118-2.325.986-2.53 1.276-6.146 1.088-8.887h.06c2.127.178 3.581-1.588 4.194-3.421.97-2.903 1.48-6.68 1.284-9.728v.01zM5.189 30.98c-1.37-.373-2.9-.662-4.304-.755.765-.518 1.548-.95 2.535-.738.952.203 1.31.84 1.769 1.493zM3.454 6.18c2.092.501 4.33.56 6.456.892h.05c-.178.984-.297 1.986-.416 2.979-1.106-.187-2.271-.093-3.394-.077-1.089.009-2.212-.042-3.275.17.204-1.68.477-3.174.579-3.972v.008zm2.739 12.529c-3.71.967-3.82-3.837-3.386-7.911 1.089.229 2.246.17 3.352.178 1.088 0 2.211.093 3.292-.076a46.445 46.445 0 01-.264 1.901c-.323 1.935-.647 5.297-2.986 5.9l-.008.008zm-1.514-4.312c-.724 0-.724-1.13 0-1.13.723 0 .723 1.13 0 1.13zm2.517-1.392c-.663 0-.663-1.036 0-1.036.664 0 .664 1.036 0 1.036zm.69 2.741c-.222.221-.647.187-.8-.101-.009-.026-.026-.043-.034-.068a.488.488 0 01.663-.662l.068.034c.29.152.324.577.102.797zm-1.991 1.69l-.017.059a.462.462 0 01-.621.297c-.23-.093-.383-.424-.221-.654.008-.017.025-.034.034-.05.136-.187.34-.272.561-.187a.46.46 0 01.264.535zM25 28.537c-.196-1.18-1.965-1.817-3.02-1.621-.06.008-.127.025-.187.042-.178-1.358-.808-2.7-1.25-3.98-.477-1.401-.893-2.853-1.523-4.202 4.883-1.681 2.101-9.745.391-12.775-.085-.153-.23-.178-.357-.136-.06-.008-.119-.017-.178 0-2.255.39-4.67.875-6.831 1.647-.017 0-.034.017-.043.025-.187-.034-.4.11-.357.357.621 3.319 1.438 12.07 6.678 11.068.289 1.562.867 3.082 1.344 4.592.39 1.24.663 2.615 1.301 3.752-.893.543-1.633 1.511-1.693 2.479 0 .042 0 .076.017.11-.136.144-.06.458.179.433.834-.085 1.625-.365 2.433-.594.893-.255 1.82-.459 2.696-.773a.346.346 0 00.153-.102c.162-.008.256-.195.238-.348l.009.026zM12.326 8.097c2.203-.212 4.508-.755 6.643-1.332.315 1.18.97 3.056 1.378 4.932-1.08-.204-2.22-.213-3.309-.297-1.25-.094-2.51-.23-3.76-.068a108.142 108.142 0 00-.952-3.226v-.008zm5.418 9.89c-2.56.042-3.368-2.742-3.913-4.686-.144-.501-.28-1.002-.416-1.503 1.08.306 2.22.382 3.334.484 1.233.11 2.526.323 3.768.263.494 2.801.23 5.399-2.764 5.45l-.009-.009zm2.365 11.5c.519-.874 1.165-1.773 2.288-1.79.63 0 1.038.33 1.455.662-1.225.246-2.595.61-3.743 1.128zm-4.602-14.242c-.723 0-.723-1.12 0-1.12s.723 1.12 0 1.12zm1.82-1.486c-.731 0-.731-1.137 0-1.137.732 0 .732 1.137 0 1.137zm.715 2.504a.593.593 0 01-.587.586.599.599 0 01-.587-.586c0-.314.272-.586.587-.586.315 0 .587.272.587.586zm1.803-.976c-.63 0-.63-.976 0-.976s.63.976 0 .976zm-7.74-11.06c0 .246-.34.331-.46.127-.383-.645-.672-1.358-.97-2.054-.272-.628-.672-1.239-.536-1.935.06-.289.468-.467.715-.289.587.425.715 1.172.893 1.85.196.748.349 1.537.349 2.301h.008zm4.116-2.08c-.28.442-.816.73-1.216 1.078-.213.187-.434.348-.646.535-.188.17-.443.255-.613.433-.11.119-.306 0-.264-.153.077-.297.043-.551.162-.832.12-.28.238-.551.417-.806.349-.484.791-1.078 1.386-1.248.553-.16 1.08.493.766.993h.008zM9.4 4.125c-.348-.246-.731-.441-1.08-.687-.366-.255-.723-.51-1.106-.73a.71.71 0 01-.348-.603v-.076c0-.187.102-.416.28-.493l.06-.025c.213-.093.502-.161.706 0 .4.305.8.611 1.131.984.34.382.536.773.766 1.223.127.246-.145.61-.417.416l.008-.009z" fill="#657D84"/>
  </g>
  <defs>
    <clipPath id="ooZ7ZASUVfS2a">
      <path fill="#fff" d="M0 0h25v32H0z"/>
    </clipPath>
  </defs>
</svg>
