<svg fill="none" xmlns="http://www.w3.org/2000/svg" viewBox="0 0 23 25">
  <g clip-path="url(#6VUBHKwWMR-pa)">
    <path d="M22.737 19.925a5.958 5.958 0 00-.952-.237c.1-2.372.448-5.29-1.727-6.793 0-.021.015-.036.015-.057.128-2.157.177-4.744-1.762-6.167-.583-.425-1.272-.698-2.026-.87.157-1.251-.02-2.739-.866-3.716-.91-1.043-2.331-1.143-3.631-1.1.078-.69-.817-1.158-1.4-.942-.405.151-.718.618-.703 1.057-1.13.086-2.246.302-3.084 1.121-1.073 1.05-1.343 2.545-1.194 3.982-.739.223-1.4.547-1.918 1-1.556 1.38-1.45 3.593-1.087 5.484a3.525 3.525 0 00-.576.33C-.036 14.405.533 17.669.981 19.774a8.683 8.683 0 00-.725.151c-.341.087-.341.611 0 .697 1.705.432 3.574.266 5.322.28 1.868.015 3.744.03 5.613.037-.05.604-.036 1.222-.036 1.833 0 .302-.014.59.029.855-.867 0-1.798-.021-2.53.446a.23.23 0 000 .388c.846.539 1.954.424 2.92.446 1.095.028 2.374.222 3.411-.159a.516.516 0 000-.977c-.774-.28-1.677-.245-2.536-.194.035-.252.02-.525.02-.813 0-.603.015-1.221-.035-1.825h4.64c1.805 0 3.95.316 5.67-.31a.378.378 0 000-.718l-.007.014zm-2.55-5.448c-.726.287-1.493.33-2.168-.151-.54-.381-.71-.92-.93-1.467.504.101.994.23 1.463.403.774.28 1.286.704 1.634 1.215zm-1.372-5.535c-.838-.122-1.343-.705-1.514-1.732.747.402 1.223 1.013 1.514 1.732zm-2.21-2.013a.35.35 0 00-.05.13c-.277 1.452-1.726 2.02-2.97 1.33-.753-.417-1.2-1.143-1.563-1.898 1.507-.036 3.183-.043 4.583.431v.007zM11.02 5.6c-1.414.058-3.31.058-4.973.439.021-.56.085-1.107.227-1.603 1.585.877 3.212-.165 4.043-1.646 1.101 1.617 3.51 2.602 4.967 1.179.135.525.177 1.1.206 1.689-1.52-.208-3.155-.108-4.463-.058h-.007zm.192.913s-.014.043-.014.065c-.114 2.372-3.354 2.61-3.624.18 1.215-.166 2.452-.223 3.638-.252v.007zm-.114-4.571c.818-.043 1.905-.202 2.658.158.568.266.938.625 1.194 1.057-1.635.776-3.432.97-4.242-1.194.128 0 .263-.007.39-.014v-.007zm-3.524.661c.661-.453 1.457-.568 2.267-.618-.632 1.488-1.77 2.221-3.36 1.89a3.174 3.174 0 011.093-1.272zm-2.33 4.636c.462-.136.938-.237 1.42-.33-.504 1.128-1.818 2.602-2.912 1.25.34-.41.824-.733 1.492-.927v.007zm-1.812 1.38c.98 1.481 2.764.561 3.652-.805.98 1.991 3.844 1.956 4.697-.093.71 1.057 1.748 1.905 3.083 1.811.853-.057 1.592-.474 2.018-1.128.42.783 1.201 1.308 2.139 1.2.227.899.256 1.898.242 2.84-2.445-1.172-5.92-.935-8.413-.827-1.798.079-3.581.259-5.372.467-.774.094-1.634.144-2.423.374-.142-1.323-.213-2.768.37-3.831l.007-.008zm12.57 4.062c-.335.582-.697 1.107-1.38 1.38-1.328.532-2.593-.202-3.083-1.524 1.421-.029 2.97-.043 4.462.144zm-5.294-.115c-.483 2.365-3.546 2.817-4.398.323a60.266 60.266 0 014.398-.323zm-6.225.546c.377-.05.76-.094 1.137-.137-.469 1.877-2.146 2.25-3.58 1.352.518-.683 1.363-1.078 2.443-1.215zm12.932 6.505c-1.975 0-3.95-.007-5.919 0-1.854 0-3.716.022-5.57.036-1.414.007-2.92-.093-4.363.058-.021-1.122-.114-2.236-.12-3.357 0-.575.092-1.064.276-1.474 1.386 1.301 3.496.669 4.3-.992 1.221 2.056 4.191 1.934 5.207-.223.654.935 1.67 1.531 2.892 1.388 1.002-.115 1.961-.755 2.388-1.66.142.653.61 1.279 1.108 1.631.839.597 2.04.697 2.949.201.469 1.287.313 2.911.405 4.363-1.18-.086-2.423.036-3.553.036v-.007z" fill="#657D84"/>
  </g>
  <defs>
    <clipPath id="6VUBHKwWMR-pa">
      <path fill="#fff" d="M0 0h23v25H0z"/>
    </clipPath>
  </defs>
</svg>
