<svg fill="none" xmlns="http://www.w3.org/2000/svg" viewBox="0 0 72 48">
  <g clip-path="url(#LveELEIuujC5a)">
    <path d="M71.647 45.883c.207-14.319.974-29.447-.829-43.662-.062-.498-.352-.81-.684-.955-.165-.373-.497-.664-1.036-.726C58.155-.498 46.777.27 35.772.25 24.684.207 13.512-.146 2.424.456c-.373 0-.621.187-.787.436-.29.103-.539.373-.601.809C.145 9.235.352 16.976.31 24.571c-.04 6.744-.974 14.423.643 21.022a.723.723 0 00.414.498.631.631 0 00.373.27c10.82 1.867 22.529.954 33.493 1.079 11.647.125 23.689 1.141 35.295.208.912-.084 1.285-.851 1.12-1.495 0-.083.02-.145.02-.228l-.02-.041zm-3.088-1.992c-7.813-6.848-16.85-12.617-25.264-18.739.932-1.68 1.7-3.445 1.7-5.064C53.221 15.69 61.138 10.003 68.475 4.4c-1.16 12.95-.394 26.5.083 39.491zM35.772 2.947c10.176.062 20.684.789 30.88.145-7.316 5.064-14.901 9.858-22.176 14.984-.642-1.142-1.844-1.848-3.316-1.64-2.052.311-3.834 1.992-5.098 3.819-.622-1.64-1.741-3.03-3.44-3.777-1.306-.582-2.923-.582-4.125.124-2.756-1.868-5.679-3.528-8.394-5.313-4.6-2.988-9.202-5.935-13.948-8.695 9.865.436 19.772.25 29.637.312l-.02.041zM3.357 24.571c.042-7.326.31-14.796-.414-22.101.248 0 .497.02.746.041.02.187.124.353.29.498 4.85 3.632 9.886 6.973 14.943 10.294 2.653 1.743 5.285 3.693 8.041 5.437-.6 2.531 1.534 5.416 2.798 7.45-9.119 5.478-18.59 11.227-26.922 17.743 1.181-6.184.497-13.157.539-19.362h-.02zm31.855 20.047c-10.26-.104-21.12-1.1-31.358.124 9.223-4.877 18.197-11.123 26.798-17.12.87 1.39 1.783 2.76 2.736 4.088.58.81 1.306 2.262 2.363 2.573 2.259.685 4-3.549 4.85-4.898.538-.85 1.202-1.826 1.865-2.884 7.938 6.246 15.834 13.053 24.373 18.386-10.446-.726-21.202-.166-31.627-.27z" fill="#657D84"/>
  </g>
  <defs>
    <clipPath id="LveELEIuujC5a">
      <path fill="#fff" d="M0 0h72v48H0z"/>
    </clipPath>
  </defs>
</svg>
