<svg fill="none" xmlns="http://www.w3.org/2000/svg" viewBox="0 0 22 24">
  <g clip-path="url(#Bt-vVyU-dgD0a)">
    <path d="M21.973 20.907c-1.008-2.362-2.294-4.603-3.64-6.79-1.07-1.745-2.099-3.905-3.675-5.274a.914.914 0 00-.068-.617c.717-1.389 2.22-5.294.244-6.34-.068-.034-.136-.06-.204-.088a11.8 11.8 0 01-.033-.852c0-.275.02-.55-.122-.798a.327.327 0 00-.5-.067c-.387.375-.326 1.093-.224 1.63-1.11.181-2.247 1.275-2.788 2.254-.38-1.214-1.794-2.254-3.059-2.046-.034-.127-.074-.255-.102-.362-.087-.356-.101-.799-.378-1.06-.163-.155-.386-.108-.508.067-.305.422-.074 1.2.19 1.69-1.909 1.37.216 4.59 1.062 5.952-.014.14 0 .295.034.436-1.577 1.261-2.842 3.1-4.02 4.69-1.57 2.127-2.97 4.334-4.04 6.736-.129.067-.203.249-.074.376 2.652 2.704 6.983 3.348 10.604 3.516 3.796.174 8.04-.175 11.152-2.563a.193.193 0 00.081-.134.32.32 0 00.068-.356zM7.065 3.999c-.014-.584.507-1.201 1.096-1.335.338-.074.887.208 1.157.376.636.402 1.002 1.006 1.327 1.664.013.026.034.046.054.067.074.134.298.187.386.02.297-.557.595-1.087 1.069-1.517.758-.697 2.389-1.456 2.754.195.325 1.463-.413 2.959-.805 4.354-.894-.16-1.841-.067-2.748-.053-.886.013-1.8-.027-2.68.114-.615-1.168-1.57-2.523-1.603-3.878l-.007-.007zm3.607 19.142c-3.763-.16-6.91-1.12-10.144-2.965 1.32-1.986 2.605-4.006 4.026-5.925 1.293-1.744 2.978-3.328 4.203-5.133.304.027.609.034.913.034-.825 1.362-1.658 2.986-1.99 4.475-.047.215.244.443.407.235 1.028-1.315 1.78-3.12 2.328-4.73.284-.014.568-.027.859-.034-.311 1.664-.291 3.69-.04 5.348.04.268.473.255.527 0 .345-1.637.386-3.71.034-5.361.291 0 .589.02.893.04.528 1.59.995 3.315 1.8 4.777.143.248.46.06.427-.18-.217-1.57-.975-3.148-1.72-4.577.366.014.732.007 1.077-.04 2.172 4.086 4.886 7.917 7.119 11.976-3.431 1.604-6.923 2.215-10.72 2.054v.006z" fill="#657D84"/>
  </g>
  <defs>
    <clipPath id="Bt-vVyU-dgD0a">
      <path fill="#fff" d="M0 0h22v24H0z"/>
    </clipPath>
  </defs>
</svg>
