<svg fill="none" xmlns="http://www.w3.org/2000/svg" viewBox="0 0 17 34">
  <g clip-path="url(#1h3YifVD_rnma)" fill="#657D84">
    <path d="M16.904 23.341c-.66-.94-1.498-1.685-2.379-2.392.074-1.46-.242-2.994-.338-4.453-.073-1.196-.066-2.4-.205-3.588h.073a.534.534 0 00.507-.316c.25-.135.418-.444.228-.73-1.014-1.519-2.115-2.97-3.1-4.513-.763-1.196-1.453-2.444-2.276-3.603 0-1.136.037-2.37-.286-3.453-.118-.39-.69-.413-.8 0-.258.978-.228 2.07-.192 3.107-1.77 2.896-3.818 5.845-5.228 8.936-.132.286.132.617.382.565.169.022.33.037.5.052-.28 2.302-.493 5.145.006 7.425-1.255.962-2.496 1.948-3.65 3.031-.403.384.118 1.046.581.775.19-.113.374-.233.565-.346-.279 3.069-.257 6.266-.132 9.327 0 .098.037.18.081.248.022.18.125.354.316.377 2.32.33 4.722.165 7.064.165 2.328 0 4.73.105 7.028-.3a.243.243 0 00.183-.144.328.328 0 00.25-.248c.47-2.798.485-6.243.14-9.192.418.188 1.013-.27.69-.737l-.008.007zm-3.37-3.167c-.088-.067-.169-.135-.257-.203-1.05-.835-2.974-2.986-4.347-3.076-1.227-.083-2.732 1.67-3.65 2.362-.184.143-.375.278-.558.421.198-2.144-.059-4.566-.272-6.65 2.857.234 5.86-.067 8.724-.112-.11 1.3 0 2.625.088 3.926.074 1.083.08 2.234.28 3.325l-.008.007zM8.658 4.634c.103.03.183.03.286 0 1.021 2.482 2.651 4.927 4.318 7.01-2.967-.097-6.242-.27-9.15.354C5.838 9.74 7.277 7.13 8.658 4.64v-.007zm2.467 28.087c.125-1.933.184-3.949-.316-5.837-.374-1.414-.976-1.925-2.438-1.768-1.116.12-2.034.7-2.159 1.926-.183 1.783-.029 3.844.243 5.664-1.462-.022-2.93-.03-4.37.128.14-3.099.17-6.326-.117-9.41a62.687 62.687 0 002.85-1.986c.976-.714 2.848-2.798 4.016-2.971.676-.098 3.54 2.67 3.921 2.986.86.7 1.66 1.474 2.563 2.091-.404 2.972-.426 6.514.03 9.44-1.388-.218-2.806-.263-4.223-.263z"/>
    <path d="M9.671 20.791h-.543c-.037-.278-.08-.556-.14-.835-.066-.323-.492-.21-.521.075-.03.271-.044.535-.059.805-.308.045-.602.12-.874.294a.235.235 0 000 .398c.272.166.566.248.867.286 0 .218.007.436.015.662.022.624-.096 1.234.315 1.73.125.15.338.083.434-.06.374-.557.146-1.331.102-1.978 0-.106-.014-.203-.022-.309h.434c.675.008.675-1.09 0-1.075l-.008.007z"/>
  </g>
  <defs>
    <clipPath id="1h3YifVD_rnma">
      <path fill="#fff" d="M0 0h17v34H0z"/>
    </clipPath>
  </defs>
</svg>
