<svg fill="none" xmlns="http://www.w3.org/2000/svg" viewBox="0 0 14 20">
  <g clip-path="url(#Zrxkkl4RWK3Ba)" fill="#566167">
    <path d="M10.433 2.64v14.6H8.7c-.005-.109-.013-.218-.013-.327-.001-3.909-.002-7.817.003-11.726 0-.126.012-.282.08-.373.53-.709 1.074-1.406 1.664-2.175zM0 11.572h7.804V13.4H0v-1.828zm7.795-.93H6.06v-.327c0-2.185-.004-4.37.007-6.554a.89.89 0 01.166-.493c.496-.672 1.011-1.327 1.56-2.041v9.415zM5.201 4.595c0 1.01.005 1.921-.005 2.833-.002.1-.067.212-.13.295-.702.92-1.405 1.839-2.121 2.746a.53.53 0 01-.36.18c-.66.018-1.32.009-2.052.009l4.668-6.063zm2.604 15.402H6.083V14.33h1.722v5.666zm.893.003v-1.8h3.933V20H8.698zM14 11.598v1.787c-.07.01-.143.028-.216.028-.74.002-1.479-.007-2.218.007-.222.004-.286-.07-.278-.298.015-.45-.003-.9.012-1.35.002-.077.101-.213.155-.214.836-.007 1.672.004 2.508.011.007 0 .015.012.036.03H14zm-8.825 8.4H3.458v-1.797h1.717v1.797zM8.686 3.382c0-.98-.005-1.96.005-2.941.001-.128.074-.254.132-.441l1.537 1.308-1.609 2.09-.065-.016z"/>
  </g>
  <defs>
    <clipPath id="Zrxkkl4RWK3Ba">
      <path fill="#fff" d="M0 0h14v20H0z"/>
    </clipPath>
  </defs>
</svg>
