<svg fill="none" xmlns="http://www.w3.org/2000/svg" viewBox="0 0 27 14">
  <g clip-path="url(#R_iDfuGSbh2ha)" fill="#566167">
    <path d="M10.97 7.052c.04.906.02 1.804.133 2.683.143 1.11.889 1.806 1.973 1.989a3.952 3.952 0 001.88-.126c1.502-.478 2.226-1.962 1.681-3.49-.114-.32-.297-.614-.456-.917-.344-.656-.259-1.143.285-1.628a3.2 3.2 0 011.56-.782c.597-.113.94.02 1.26.553.463.77.92 1.545 1.356 2.33.565 1.017 1.108 2.047 1.66 3.07.031.056.065.11.116.194.082-.153.155-.28.22-.412.859-1.725 1.535-3.526 2.097-5.375.105-.348.215-.41.556-.302.46.145.918.29 1.378.437.332.106.398.209.271.556-.283.781-.564 1.564-.884 2.328-.66 1.58-1.462 3.085-2.306 4.57-.597 1.048-1.484 1.306-2.562 1.204-.61-.057-1.053-.365-1.38-.89-.376-.605-.767-1.2-1.157-1.81-.03.025-.055.038-.069.06-.913 1.453-2.234 2.27-3.86 2.547-1.595.271-3.156.108-4.628-.63-.343-.17-.656-.403-.977-.603-.35.219-.706.471-1.087.673a5.907 5.907 0 01-2.697.672c-.913.015-1.81-.063-2.673-.392-1.576-.601-2.451-1.775-2.6-3.496C0 9.365.022 8.657.016 7.952c-.006-.9-.002-1.8-.001-2.7 0-.249.07-.325.31-.325a935.65 935.65 0 012.906 0c.262 0 .331.073.331.348l.001 4.666c0 1.144.668 1.84 1.781 1.86 1.168.022 1.846-.534 2.07-1.718.056-.295.08-.6.081-.9.005-2.326.013-4.652-.007-6.977-.006-.708.23-1.031.924-1.177a3.953 3.953 0 011.783.02c.587.147.825.468.826 1.094.002.85.005 1.7-.003 2.55-.001.177.05.234.225.232.829-.008 1.659-.005 2.488-.004.295 0 .359.065.36.364v1.577c-.001.281-.063.345-.33.345-.6.001-1.2.016-1.799-.006-.309-.01-.615-.09-.992-.149zM3.564 1.874c0 1.058-.716 1.787-1.76 1.79C.733 3.668-.01 2.91 0 1.816.008.745.747-.003 1.794 0c1.069.003 1.77.746 1.77 1.874z"/>
  </g>
  <defs>
    <clipPath id="R_iDfuGSbh2ha">
      <path fill="#fff" d="M0 0h27v13.966H0z"/>
    </clipPath>
  </defs>
</svg>
