<svg fill="none" xmlns="http://www.w3.org/2000/svg" viewBox="0 0 100 100">
  <path fill="#B9EDEB" fill-opacity=".9" d="M0 0h100v100H0z"/>
  <path d="M55.501 43.548c-.06-.657-.596-1.155-1.29-.985-6.047 1.532-12.083 3.101-18.143 4.597-.511.122-.864.73-.706 1.241 1.266 3.94 1.886 8.003 2.008 12.139.037 1.338.06 2.688 0 4.038-2.397-.864-5.622.596-6.559 2.968-1.07 2.712.791 5.68 3.772 5.448 4.43-.352 4.904-5.57 4.965-8.988.061-3.09-.11-6.166-.584-9.195 5.135-.633 10.453-2.165 15.405-3.588.438 2.323.95 4.634 1.363 6.945.22 1.216.56 2.676.743 4.148-2.8.814-7.545 2.505-7.022 6.215.414 2.943 4.21 3.393 6.389 2.177 3.529-1.97 2.993-6.629 2.53-9.974-.802-5.777-2.336-11.372-2.883-17.186h.012zM38.77 53.631a40.788 40.788 0 00-1.156-4.78c5.294-1.362 10.611-2.688 15.917-4.014.085 1.509.28 3.005.523 4.488-5.038 1.156-10.453 2.384-15.284 4.306zM62.194 27.76c-1.558-1.97-3.334.256-4.247 2.141-.292-.668-.718-1.24-1.375-1.569-.961-.486-2.276-.28-2.86.681-.657 1.083-.207 2.579.28 3.625.937 2.02 2.446 3.868 3.687 5.717.365.547 1.363.717 1.68 0 .888-2.007 1.886-3.99 2.628-6.057.426-1.18 1.095-3.382.195-4.525l.012-.012zm6.619 13.781c-1.703-1.252-2.944.402-3.59 2.177-.888-1.277-2.603-1.994-3.626-.364-.608.96-.097 1.897.585 2.627 1.229 1.301 2.36 2.59 3.334 4.099.413.644 1.57.62 1.74-.231.377-1.886 1.217-3.443 1.898-5.206.39-.985.633-2.36-.353-3.09l.012-.012z" fill="#46555E"/>
</svg>
