<svg fill="none" xmlns="http://www.w3.org/2000/svg" viewBox="0 0 34 44">
  <g clip-path="url(#36aLU_LxVEXTa)">
    <path d="M33.834 24c-.815-6.69-5.378-12.473-11.282-14.285.041-.544 0-1.101-.028-1.673A.893.893 0 0022 7.234c.802-.92 1.534-1.91 2.309-2.871a.76.76 0 00.166-.474.586.586 0 00.166-.697c-.43-.934-1.037-1.979-1.812-2.662a.408.408 0 00-.4-.098C21.03-.11 19.384.014 17.92 0c-1.549 0-3.125-.027-4.646.335-.041 0-.07.028-.097.042-.622.111-1.01.864-1.369 1.338-.415.571-.94 1.143-1.147 1.826a.41.41 0 00.055.306c0 .14.055.279.152.39.913 1.13 1.84 2.258 2.862 3.29-.069.027-.138.041-.193.07-.222.083-.47.25-.512.515-.097.697 0 1.477.152 2.188-.014 0-.027 0-.055.014a.525.525 0 00-.18.126C4.91 12.28-.332 20.306.014 28.752.443 39.303 10.26 44.056 19.676 44c10.508-.055 15.32-10.564 14.158-20zM20.602 7.122h-.968c.11-.278.208-.557.305-.836.193-.543.497-1.17.69-1.784.623 0 1.259.028 1.881.028-.65.85-1.313 1.7-1.922 2.592h.014zm-3.429.056h-.345c-.166-.739-.388-1.477-.595-2.216-.055-.209-.11-.39-.152-.557 1.161.014 2.323.041 3.498.07-.318.863-.65 1.755-.899 2.661-.497 0-.995.014-1.507.042zm5.13-5.895c.345.655.733 1.282 1.092 1.923H20.81c-.18-.697-.913-1.38-1.508-1.923 1.01.07 2.033.167 3.015 0h-.014zm-6.167 1.56c.18-.543.54-1.086.83-1.602h1.493c.373.557.843 1.045 1.203 1.617.097.153.166.264.207.362-1.272 0-2.558.014-3.843.028.027-.126.055-.251.11-.39v-.014zm-3.512-.501c.277-.362.691-.739.885-1.17.733.069 1.48.083 2.226.083-.332.613-.594 1.296-.663 1.993-1.024 0-2.06 0-3.084-.042.221-.279.415-.585.636-.85v-.014zm.07 2.049h2.447c.165.92.4 1.895.705 2.815-.263 0-.512.014-.774.042a29.322 29.322 0 00-2.393-2.857h.014zm5.17 37.031C9.804 40.865 2.31 36.739 2.351 27.68c.027-7.86 4.812-13.436 11.739-15.791 3.885.25 7.66-.822 11.24 1.575 3.32 2.216 5.656 7.122 6.085 10.982 1.037 9.06-3.706 17.645-13.537 16.976h-.014z" fill="#657D84"/>
  </g>
  <defs>
    <clipPath id="36aLU_LxVEXTa">
      <path fill="#fff" d="M0 0h34v44H0z"/>
    </clipPath>
  </defs>
</svg>
