<svg fill="none" xmlns="http://www.w3.org/2000/svg" viewBox="0 0 100 100">
  <path fill="#B9EDEB" fill-opacity=".9" d="M0 0h100v100H0z"/>
  <path d="M68.285 51.078c0-5.129.418-10.52-.368-15.598.036-.311-.148-.66-.578-.697-2.396-.187-4.83-.236-7.262-.224-.074-.859-.099-1.755-.652-2.427-.184-.224-.503-.112-.639.087-.467.66-.442 1.556-.442 2.365-1.487.025-2.986.05-4.473.087-.061-.685-.11-1.394-.48-1.967-.208-.336-.749-.386-.958 0-.32.623-.32 1.307-.331 2.004-.725 0-1.45.013-2.175.013-.959 0-1.93-.013-2.9-.038-.013-.759-.074-1.518-.418-2.178-.197-.373-.787-.373-.983 0-.344.647-.406 1.394-.418 2.141-1.401-.025-2.802-.062-4.19-.075-.062-.796-.21-1.568-.517-2.24-.209-.473-.823-.25-.97.124-.246.635-.37 1.357-.418 2.104-2.175.025-4.326.137-6.44.41-.233-.074-.515.026-.577.3-1.044 5.066-.418 10.742-.418 15.883 0 2.714.037 5.428.074 8.141.037 2.44-.172 5.054.406 7.444-.172.262-.086.685.27.772 2.544.66 5.395.311 8.012.311h9.462c5.702 0 11.809.573 17.45-.373.184-.025.27-.187.294-.349a.435.435 0 00.344-.348c.934-5.017.32-10.581.32-15.672h-.025zM49.877 66.227h-8.933c-2.58 0-5.383-.324-7.939.187.492-2.303.295-4.793.332-7.133.037-2.714.074-5.428.074-8.141 0-1.843.074-3.747.123-5.664 2.285.498 4.78.224 7.102.236h9.02c5.579 0 11.367.424 16.933-.087.037 1.83.074 3.66.074 5.453 0 5.029-.59 10.518.283 15.473-5.542-.872-11.502-.324-17.081-.324h.012zm16.725-24.971c-5.358-.622-11.035-.112-16.405-.1-5.469 0-11.183-.435-16.626.224-.037-1.88-.16-3.722-.492-5.514 1.979.236 3.994.336 6.021.361 0 .56.037 1.108.037 1.606.025 1.22 1.807 1.22 1.868 0 .025-.498.05-1.046.062-1.606 1.364 0 2.74-.037 4.104-.062-.05.784-.086 1.643.504 2.128.295.237.602.237.91 0 .601-.485.564-1.369.503-2.166a220.53 220.53 0 012.85-.025c.726 0 1.45 0 2.188.013.012.485.037.958.074 1.444.098 1.183 1.855 1.22 1.843 0 0-.473-.024-.934-.05-1.407 1.439.025 2.889.063 4.339.075 0 .548.036 1.095.147 1.63.172.822 1.573.872 1.684 0a8.99 8.99 0 00.049-1.618c2.26 0 4.522-.037 6.758-.199-.233 1.718-.332 3.46-.38 5.216h.012z" fill="#46555E"/>
  <path d="M50.221 53.43c-1.142-1.991-3.747-3.834-5.456-1.73-1.044 1.282-.393 2.863.295 4.12 1.29 2.353 2.876 4.544 4.535 6.648.27.348.897.31 1.167 0 1.72-1.88 3.588-3.897 4.719-6.224.7-1.432 1.487-3.785.32-5.191-1.795-2.166-4.486.137-5.592 2.377h.012z" fill="#46555E"/>
</svg>
