<svg fill="none" xmlns="http://www.w3.org/2000/svg" viewBox="0 0 30 18">
  <g clip-path="url(#2parwT3AJXxXa)" fill="#566167">
    <path d="M24.61 10.399l1.028-2.278c.49-1.086.987-2.17 1.464-3.261.16-.366.395-.534.799-.518.518.02 1.038.003 1.557.004.535.002.664.207.434.706-.625 1.354-1.254 2.707-1.881 4.06-1.291 2.78-2.587 5.559-3.867 8.344-.176.382-.422.559-.843.542-.492-.02-.984-.005-1.475-.005-.574 0-.705-.204-.458-.73a744.283 744.283 0 011.867-3.946c.064-.136.076-.236-.016-.371-1.418-2.084-2.83-4.172-4.243-6.26-.03-.044-.065-.086-.12-.158L16.6 8.958c.465.688.916 1.359 1.37 2.029.54.8 1.079 1.598 1.62 2.396.117.172.252.375.1.544-.107.12-.328.18-.501.186-.582.023-1.166-.007-1.748.014-.38.015-.635-.133-.843-.44-.988-1.453-1.986-2.897-2.979-4.346-.254-.37-.23-.718.074-1.043 1.073-1.153 2.153-2.3 3.216-3.46.313-.341.664-.51 1.128-.497a40.05 40.05 0 002.021 0c.485-.011.82.173 1.08.591 1.08 1.73 2.18 3.445 3.273 5.165.057.09.117.177.2.302zM5.708 4.346h2.65c.421.001.524.108.527.538.001.273.005.546-.002.819-.016.66-.344.99-1.004.994-1.41.006-2.822 0-4.233.004-.171.001-.357.001-.508.066-.123.053-.273.194-.287.311-.015.134.068.34.176.415.18.124.409.194.627.245.975.228 1.96.411 2.926.672a6.182 6.182 0 011.554.637c1.476.884 1.514 3.497-.068 4.46-.7.426-1.467.597-2.267.606-1.73.019-3.46.01-5.19.008-.305 0-.431-.128-.44-.43-.007-.265-.002-.529-.002-.793.003-.834.297-1.127 1.14-1.127 1.412-.001 2.823 0 4.234-.003.172 0 .358.007.511-.056.134-.054.312-.194.322-.309.013-.149-.085-.354-.204-.455-.136-.115-.342-.163-.525-.206-.975-.226-1.956-.43-2.928-.664a6.63 6.63 0 01-1.188-.396C.64 9.274.08 8.598.01 7.587c-.078-1.14.29-2.079 1.286-2.71a3.448 3.448 0 011.79-.516c.873-.019 1.748-.005 2.622-.005v-.01zm4.437 2.934V1.163c0-.868.297-1.163 1.165-1.164h1.093c.557 0 .637.08.637.625v12.313c0 .118.001.237-.013.354-.062.51-.344.8-.855.822a25.57 25.57 0 01-1.639.006c-.284-.006-.386-.145-.387-.48-.002-1.218-.001-2.438-.001-3.657V7.279z"/>
  </g>
  <defs>
    <clipPath id="2parwT3AJXxXa">
      <path fill="#fff" d="M0 0h30v18H0z"/>
    </clipPath>
  </defs>
</svg>
