<svg fill="none" xmlns="http://www.w3.org/2000/svg" viewBox="0 0 48 48">
  <g opacity=".14" clip-path="url(#BNB-QgDj18dra)">
    <path fill-rule="evenodd" clip-rule="evenodd" d="M23.942 0h.116v2.942c2.781.007 5.436.554 7.864 1.54V0h.117v4.53a21.058 21.058 0 015.63 3.45h2.234V0h.116v7.98H48v.117h-7.98v2.234a21.06 21.06 0 013.45 5.63H48v.116h-4.483a20.997 20.997 0 011.541 7.864H48v.117h-2.942a20.997 20.997 0 01-1.54 7.864H48v.116h-4.53a21.059 21.059 0 01-3.45 5.631v2.233H48v.117h-7.98V48h-.117v-7.981H37.67a21.056 21.056 0 01-5.631 3.45V48h-.117v-4.483a20.995 20.995 0 01-7.864 1.541V48h-.116v-2.942a20.995 20.995 0 01-7.864-1.54V48h-.117v-4.53a21.058 21.058 0 01-5.63-3.451H8.096V48H7.98v-7.981H0v-.117h7.98V37.67a21.058 21.058 0 01-3.45-5.63H0v-.117h4.483a20.996 20.996 0 01-1.541-7.864H0v-.117h2.942a20.996 20.996 0 011.54-7.864H0v-.116h4.53a21.06 21.06 0 013.45-5.63V8.097H0V7.98h7.98V0h.117v7.98h2.234a21.058 21.058 0 015.63-3.45V0h.117v4.483a20.996 20.996 0 017.864-1.541V0zm0 3.058a20.879 20.879 0 00-7.864 1.55V7.98h7.864V3.058zm-7.98 1.599a20.94 20.94 0 00-5.45 3.323h5.45V4.657zm-5.766 3.44H8.097v2.099c.65-.748 1.351-1.45 2.099-2.099zm-2.099 2.277a21.1 21.1 0 012.277-2.277h5.587v7.864H8.097v-5.587zm-.116.137a20.941 20.941 0 00-3.324 5.45H7.98v-5.45zm-3.372 5.566a20.88 20.88 0 00-1.55 7.864H7.98v-7.864H4.609zm-1.55 7.98a20.879 20.879 0 001.55 7.865H7.98v-7.864H3.058zm1.598 7.981A20.94 20.94 0 007.98 37.49v-5.45H4.657zm3.44 5.766v2.098h2.098a21.183 21.183 0 01-2.098-2.098zm2.276 2.098a21.07 21.07 0 01-2.276-2.276v-5.588h7.864v7.864h-5.588zm.137.117a20.936 20.936 0 005.451 3.324V40.02h-5.45zm5.568 3.372a20.88 20.88 0 007.864 1.55V40.02h-7.864v3.372zm7.98 1.55a20.88 20.88 0 007.864-1.55V40.02h-7.864v4.923zm7.98-1.598a20.936 20.936 0 005.452-3.324h-5.451v3.324zm5.767-3.44h2.098v-2.099c-.65.748-1.35 1.449-2.098 2.098zm2.098-2.277c-.7.816-1.46 1.577-2.276 2.276h-5.588v-7.864h7.864v5.588zm.116-.137a20.94 20.94 0 003.325-5.45h-3.325v5.45zm3.373-5.567a20.882 20.882 0 001.55-7.864h-4.923v7.864h3.373zm1.55-7.98a20.882 20.882 0 00-1.55-7.865h-3.373v7.864h4.923zm-1.599-7.981a20.938 20.938 0 00-3.324-5.45v5.45h3.324zm-3.44-5.765V8.097h-2.099c.748.65 1.45 1.351 2.099 2.099zm-2.277-2.099a21.1 21.1 0 012.277 2.277v5.587h-7.864V8.097h5.587zm-.137-.117a20.94 20.94 0 00-5.45-3.323V7.98h5.45zm-5.567-3.37a20.878 20.878 0 00-7.864-1.55v4.92h7.864V4.61zM16.078 8.097h7.864v7.864h-7.864V8.097zm15.844 0h-7.864v7.864h7.864V8.097zm-15.96 23.825H8.096v-7.864h7.864v7.864zm.116.116v7.864h7.864v-7.864h-7.864zm7.864-.116h-7.864v-7.864h7.864v7.864zm.116.116v7.864h7.864v-7.864h-7.864zm7.864-.116h-7.864v-7.864h7.864v7.864zm7.98 0H32.04v-7.864h7.864v7.864zM16.079 16.077h7.864v7.864h-7.864v-7.864zm-7.98 0h7.863v7.864H8.097v-7.864zm23.824 0h-7.864v7.864h7.864v-7.864zm.117 7.864v-7.864h7.864v7.864H32.04z" fill="#0A0D12"/>
  </g>
  <defs>
    <clipPath id="BNB-QgDj18dra">
      <path fill="#fff" d="M0 0h48v48H0z"/>
    </clipPath>
  </defs>
</svg>
