<svg fill="none" xmlns="http://www.w3.org/2000/svg" viewBox="0 0 24 24">
  <path fill="url(#mgOvm5GHpCnWa)" d="M0 0h24v24H0z"/>
  <path fill="url(#mgOvm5GHpCnWb)" fill-opacity=".08" d="M0 0h24v24H0z"/>
  <path fill="url(#mgOvm5GHpCnWc)" fill-opacity=".18" d="M0 0h24v24H0z"/>
  <path fill="url(#mgOvm5GHpCnWd)" fill-opacity=".05" d="M0 0h24v24H0z"/>
  <path d="M19.2 6.062c0 2.023-3.224.733-7.2.733-3.977 0-7.2 1.29-7.2-.733C4.8 4.04 8.023 2.4 12 2.4c3.976 0 7.2 1.64 7.2 3.662z" fill="url(#mgOvm5GHpCnWe)" fill-opacity=".4"/>
  <defs>
    <radialGradient id="mgOvm5GHpCnWb" cx="0" cy="0" r="1" gradientUnits="userSpaceOnUse" gradientTransform="matrix(0 18 -18 0 12 0)">
      <stop stop-color="#fff" stop-opacity="0"/>
      <stop offset=".5" stop-color="#fff" stop-opacity="0"/>
      <stop offset=".99" stop-color="#fff"/>
      <stop offset="1" stop-color="#fff" stop-opacity="0"/>
    </radialGradient>
    <radialGradient id="mgOvm5GHpCnWc" cx="0" cy="0" r="1" gradientUnits="userSpaceOnUse" gradientTransform="matrix(0 12 -12 0 12 12)">
      <stop offset=".747" stop-color="#fff" stop-opacity="0"/>
      <stop offset="1" stop-color="#fff"/>
    </radialGradient>
    <radialGradient id="mgOvm5GHpCnWd" cx="0" cy="0" r="1" gradientUnits="userSpaceOnUse" gradientTransform="matrix(0 10.5 -10.5 0 12 6.9)">
      <stop stop-color="#fff"/>
      <stop offset="1" stop-color="#fff" stop-opacity="0"/>
    </radialGradient>
    <linearGradient id="mgOvm5GHpCnWa" x1="6" y1="24" x2="18" y2="0" gradientUnits="userSpaceOnUse">
      <stop stop-color="#53389E"/>
      <stop offset="1" stop-color="#6941C6"/>
    </linearGradient>
    <linearGradient id="mgOvm5GHpCnWe" x1="12" y1="2.4" x2="12" y2="7.2" gradientUnits="userSpaceOnUse">
      <stop stop-color="#fff"/>
      <stop offset="1" stop-color="#fff" stop-opacity=".1"/>
    </linearGradient>
  </defs>
</svg>
