<svg fill="none" xmlns="http://www.w3.org/2000/svg" viewBox="0 0 768 768">
  <g clip-path="url(#lbbnc4UHgdh1a)" stroke="#E9EAEB">
    <path d="M.5 0v768m48-768v768m48-768v768m48-768v768m48-768v768m48-768v768m48-768v768m48-768v768m48-768v768m48-768v768m48-768v768m48-768v768m48-768v768m48-768v768m48-768v768m48-768v768"/>
  </g>
  <path d="M.5.5h767v767H.5V.5z" stroke="#E9EAEB"/>
  <defs>
    <clipPath id="lbbnc4UHgdh1a">
      <path d="M0 0h768v768H0V0z" fill="#fff"/>
    </clipPath>
  </defs>
</svg>
